# AST/ASF file generated using VICON BodyLanguage
# -----------------------------------------------
:version 1.10
:name VICON
:units
  mass 1.0
  length 0.45
  angle deg
:documentation
   .ast/.asf automatically generated from VICON data using
   VICON BodyBuilder and BodyLanguage model FoxedUp or BRILLIANT.MOD
:root
   order TX TY TZ RX RY RZ
   axis XYZ
   position 0 0 0  
   orientation 0 0 0 
:bonedata
  begin
     id 1 
     name lhipjoint
     direction 0.661853 -0.702389 0.261917 
     length 2.64193 
     axis 0 0 0  XYZ
  end
  begin
     id 2 
     name lfemur
     direction 0.34202 -0.939693 0  
     length 7.01722  
     axis 0 0 20  XYZ
    dof rx ry rz
    limits (-160.0 20.0)
           (-70.0 70.0)
           (-60.0 70.0)
  end
  begin
     id 3 
     name ltibia
     direction 0.34202 -0.939693 0   
     length 8.25008   
     axis 0 0 20   XYZ
    dof rx
    limits (-10.0 170.0)
  end
  begin
     id 4 
     name lfoot
     direction 0.0709916 -0.195048 0.978221   
     length 2.31941   
     axis -90 7.62852e-016 20   XYZ
    dof rx rz
    limits (-45.0 90.0)
           (-70.0 20.0)
  end
  begin
     id 5 
     name ltoes
     direction 1.53586e-011 -4.22017e-011 1   
     length 1.16486   
     axis -90 7.62852e-016 20   XYZ
    dof rx
    limits (-90.0 20.0)
  end
  begin
     id 6 
     name rhipjoint
     direction -0.638185 -0.721362 0.268992   
     length 2.57244  
     axis 0 0 0  XYZ 
  end
  begin
     id 7 
     name rfemur
     direction -0.34202 -0.939693 0   
     length 7.07017   
     axis 0 0 -20   XYZ
    dof rx ry rz
    limits (-160.0 20.0)
           (-70.0 70.0)
           (-70.0 60.0)
  end
  begin
     id 8 
     name rtibia
     direction -0.34202 -0.939693 0   
     length 8.20386   
     axis 0 0 -20   XYZ
    dof rx
    limits (-10.0 170.0)
 end
 begin
     id 9 
     name rfoot
     direction -0.0822429 -0.225961 0.970658   
     length 2.32215  
     axis -90 -7.62852e-016 -20   XYZ
    dof rx rz
    limits (-45.0 90.0)
           (-20.0 70.0)
  end
  begin
     id 10 
     name rtoes
     direction -1.53597e-011 -4.21689e-011 1   
     length 1.16333   
     axis -90 -7.62852e-016 -20   XYZ
    dof rx
    limits (-90.0 20.0)
  end
  begin
     id 11 
     name lowerback
     direction -0.0131557 0.998589 -0.0514484   
     length 2.14993   
     axis 0 0 0   XYZ
    dof rx ry rz
    limits (-20.0 45.0)
           (-30.0 30.0)
           (-30.0 30.0)
  end
  begin
     id 12 
     name upperback
     direction -0.000776481 0.999993 0.00352685   
     length 2.15301   
     axis 0 0 0   XYZ
    dof rx ry rz
    limits (-20.0 45.0)
           (-30.0 30.0)
           (-30.0 30.0)
  end
  begin
     id 13 
     name thorax
     direction 0.00438186 0.999609 0.0276143   
     length 2.15424   
     axis 0 0 0   XYZ
    dof rx ry rz
    limits (-20.0 45.0)
           (-30.0 30.0)
           (-30.0 30.0)
  end
  begin
     id 14 
     name lowerneck
     direction -0.0488006 0.998094 0.0377807   
     length 1.90481   
     axis 0 0 0   XYZ
    dof rx ry rz
    limits (-20.0 45.0)
           (-30.0 30.0)
           (-30.0 30.0)
  end
  begin
     id 15 
     name upperneck
     direction 0.0443769 0.990702 -0.12861   
     length 1.91305   
     axis 0 0 0   XYZ
    dof rx ry rz
    limits (-20.0 45.0)
           (-30.0 30.0)
           (-30.0 30.0)
  end
  begin
     id 16
     name head
     direction 0.0165599 0.998647 -0.0492982  
     length 1.92369  
     axis 0 0 0   XYZ
    dof rx ry rz
    limits (-20.0 45.0)
           (-30.0 30.0)
           (-30.0 30.0)
  end
  begin
     id 17 
     name lclavicle
     direction 0.911936 0.410197 -0.0105506  
     length 3.52622  
     axis 0 0 0   XYZ
    dof ry rz
    limits (-20.0 10.0)
           (0.0 20.0)
  end
  begin
     id 18 
     name lhumerus
     direction 1 -4.48974e-011 -2.48591e-028   
     length 5.47651   
     axis 180 -30 -90   XYZ
    dof rx ry rz
    limits (-60.0 90.0)
           (-90.0 90.0)
           (-90.0 90.0)
  end
  begin
     id 19
     name lradius
     direction 1 -4.48938e-011 -4.40099e-027   
     length 3.09058   
     axis 180 -30 -90   XYZ
    dof rx
    limits (-10.0 170.0)
  end
  begin
     id 20
     name lwrist
     direction 1 -4.49042e-011 -2.99852e-027   
     length 1.54529   
     axis 1.95339e-015 90 90   XYZ
    dof ry
    limits (-180.0 0.0)
 end
  begin
     id 21 
     name lhand
     direction 1 -4.48815e-011 -5.98193e-027   
     length 0.771611   
     axis 3.82337e-015 90 90   XYZ
    dof rx rz
    limits (-90.0 90.0)
           (-45.0 45.0)
  end
  begin
     id 22 
     name lfingers
     direction 1 -4.49034e-011 -1.1993e-026   
     length 0.622093   
     axis 7.64668e-015 90 90   XYZ
    dof rx
    limits (0.0 90.0)
  end
  begin
     id 23
     name lthumb
     direction 0.707107 -6.34867e-011 0.707107   
     length 0.893204   
     axis -90 45 -1.62303e-014   XYZ
    dof rx rz
    limits (-45.0 45.0)
           (-45.0 45.0)
  end
  begin
     id 24 
     name rclavicle
     direction -0.93442 0.355634 -0.0195692   
     length 3.62463  
     axis 0 0 0   XYZ 
    dof ry rz
    limits (-10.0 20.0)
           (-20.0 0.0)
  end
  begin
     id 25 
     name rhumerus
     direction -1 -4.48957e-011 -1.19147e-027  
     length 5.14182   
     axis 180 30 90   XYZ
    dof rx ry rz
    limits (-90.0 60.0)
           (-90.0 90.0)
           (-90.0 90.0)
  end
  begin
     id 26 
     name rradius
     direction -1 -4.48952e-011 -3.81062e-027   
     length 3.35565   
     axis 180 30 90   XYZ
    dof rx
    limits (-10.0 170.0)
  end
  begin
     id 27 
     name rwrist
     direction -1 -4.48973e-011 -2.99621e-027   
     length 1.67782   
     axis 1.95339e-015 -90 -90   XYZ
    dof ry
    limits (-180.0 0.0)
  end
  begin
     id 28
     name rhand
     direction -1 -4.48895e-011 -5.98727e-027   
     length 0.801042   
     axis 3.82337e-015 -90 -90   XYZ
    dof rx rz
    limits (-90.0 90.0)
           (-45.0 45.0)
  end
  begin
     id 29
     name rfingers
     direction -1 -4.49065e-011 -1.19972e-026   
     length 0.645821   
     axis 7.64668e-015 -90 -90   XYZ
    dof rx
    limits (0.0 90.0)
  end
  begin
     id 30
     name rthumb
     direction -0.707107 -6.34957e-011 0.707107   
     length 0.927273   
     axis -90 -45 1.62303e-014   XYZ
    dof rx rz
    limits (-45.0 45.0)
           (-45.0 45.0)
  end
:hierarchy
  begin
    root lhipjoint rhipjoint lowerback
    lhipjoint lfemur
    lfemur ltibia
    ltibia lfoot
    lfoot ltoes
    rhipjoint rfemur
    rfemur rtibia
    rtibia rfoot
    rfoot rtoes
    lowerback upperback
    upperback thorax
    thorax lowerneck lclavicle rclavicle
    lowerneck upperneck
    upperneck head
    lclavicle lhumerus
    lhumerus lradius
    lradius lwrist
    lwrist lhand lthumb
    lhand lfingers
    rclavicle rhumerus
    rhumerus rradius
    rradius rwrist
    rwrist rhand rthumb
    rhand rfingers
  end

#!OML:ASF F:\VICON\USERDATA\INSTALL\rory3\rory3.ASF
:FULLY-SPECIFIED
:DEGREES
124
root 16.5331 17.8336 -12.8961 5.38817 -53.4964 0.47388
lowerback 4.23411 2.06169 -5.62339
upperback 1.20605 2.47103 -1.00617
thorax -1.32352 1.23467 1.97801
lowerneck -5.72568 -3.49154 -5.48548
upperneck 18.1251 -4.85671 3.38577
head 6.67175 -2.5029 1.62349
rclavicle 1.16289e-014 1.07344e-014
rhumerus -34.5002 -4.71862 -81.6861
rradius 26.9939
rwrist -1.1511
rhand -10.6576 16.3331
rfingers 7.12502
rthumb 15.3503 -13.0771
lclavicle 1.16289e-014 1.07344e-014
lhumerus -37.3951 -0.458831 79.5391
lradius 26.2393
lwrist 7.37004
lhand -3.64892 28.4064
lfingers 7.12502
lthumb 22.0911 57.1645
rfemur -33.9959 -0.434683 19.6475
rtibia 46.085
rfoot -13.8071 -11.8059
rtoes -14.8971
lfemur -7.53629 -3.55037 -27.0793
ltibia 21.8674
lfoot -21.209 14.0923
ltoes -12.6028
125
root 16.5009 17.8331 -12.8703 5.30795 -53.3899 0.545496
lowerback 4.98945 1.97695 -5.93661
upperback 0.69157 2.27532 -0.800379
thorax -2.28331 1.17406 2.3404
lowerneck -5.26504 -3.38869 -5.55453
upperneck 18.3751 -4.70959 3.1549
head 6.66079 -2.46562 1.57956
rclavicle 3.13086e-014 3.97569e-015
rhumerus -35.3311 -4.42894 -81.3621
rradius 26.8564
rwrist -1.00442
rhand -10.3685 16.1192
rfingers 7.12502
rthumb 15.6287 -13.2695
lclavicle 3.13086e-014 3.97569e-015
lhumerus -38.185 -0.000647321 79.4347
lradius 25.8984
lwrist 6.96275
lhand -3.63342 28.2443
lfingers 7.12502
lthumb 22.1059 57.0007
rfemur -33.9795 -0.211997 19.5176
rtibia 44.9797
rfoot -13.7732 -11.8825
rtoes -15.4802
lfemur -7.18606 -3.60645 -27.1327
ltibia 21.5152
lfoot -21.1542 14.2267
ltoes -13.4726
126
root 16.467 17.8311 -12.8449 5.21538 -53.2813 0.695761
lowerback 4.68872 2.00643 -5.7275
upperback 0.952827 2.3527 -0.937734
thorax -1.83721 1.19378 2.09243
lowerneck -5.38777 -3.50079 -5.53133
upperneck 18.1393 -4.87712 3.32973
head 6.61796 -2.52598 1.61736
rclavicle -2.98177e-016 -1.63003e-014
rhumerus -35.0065 -5.1 -81.2569
rradius 26.6235
rwrist -0.693172
rhand -10.4773 15.3509
rfingers 7.12502
rthumb 15.524 -14.046
lclavicle -2.98177e-016 -1.63003e-014
lhumerus -37.6752 -0.456994 79.4076
lradius 25.7301
lwrist 6.99069
lhand -3.7317 28.2115
lfingers 7.12502
lthumb 22.0116 56.979
rfemur -33.9982 0.0182242 19.3187
rtibia 43.8642
rfoot -13.9377 -11.9935
rtoes -15.8605
lfemur -6.86462 -3.70192 -27.2382
ltibia 21.1215
lfoot -21.0377 14.3651
ltoes -14.3077
127
root 16.4268 17.8321 -12.8138 5.08715 -53.2591 0.904872
lowerback 4.40607 2.02394 -5.71548
upperback 1.12399 2.40156 -0.997064
thorax -1.50315 1.2062 2.035
lowerneck -5.49319 -3.55687 -5.50254
upperneck 18.0093 -4.95975 3.41848
head 6.60002 -2.55366 1.63314
rclavicle 4.57205e-015 -2.50469e-014
rhumerus -34.8237 -5.4299 -81.1451
rradius 26.3828
rwrist -0.501032
rhand -11.052 14.7968
rfingers 7.12502
rthumb 14.9704 -14.6422
lclavicle 4.57205e-015 -2.50469e-014
lhumerus -37.4556 -0.908111 79.4974
lradius 25.7808
lwrist 7.16463
lhand -3.81224 28.3081
lfingers 7.12502
lthumb 21.9343 57.0846
rfemur -33.9783 0.249016 19.0787
rtibia 42.7178
rfoot -14.0938 -12.04
rtoes -15.5534
lfemur -6.49594 -3.81263 -27.4113
ltibia 20.7509
lfoot -21.0741 14.4602
ltoes -14.1451
128
root 16.3876 17.8319 -12.7838 5.00865 -53.2322 1.08018
lowerback 4.23835 2.0097 -5.76582
upperback 1.20455 2.39538 -1.00319
thorax -1.32742 1.19729 2.06478
lowerneck -5.58095 -3.58721 -5.47832
upperneck 17.9556 -4.99339 3.40457
head 6.59895 -2.56721 1.62063
rclavicle -2.48481e-014 -2.34566e-014
rhumerus -34.722 -5.64501 -81.0128
rradius 26.1228
rwrist -0.284513
rhand -11.4053 14.8344
rfingers 7.12502
rthumb 14.63 -14.6295
lclavicle -2.48481e-014 -2.34566e-014
lhumerus -37.3255 -1.11499 79.537
lradius 25.7289
lwrist 7.14679
lhand -3.94428 28.405
lfingers 7.12502
lthumb 21.8075 57.1964
rfemur -33.9965 0.429577 18.8871
rtibia 41.5458
rfoot -14.1214 -12.125
rtoes -15.7548
lfemur -6.17157 -3.85995 -27.5554
ltibia 20.4009
lfoot -21.1045 14.5428
ltoes -14.4156
129
root 16.3511 17.8306 -12.7573 5.09092 -53.096 1.03972
lowerback 4.18106 1.95063 -5.7005
upperback 1.25303 2.32665 -0.959696
thorax -1.23918 1.16004 2.08036
lowerneck -5.59761 -3.58416 -5.43456
upperneck 17.8686 -4.97882 3.34579
head 6.57085 -2.56064 1.59579
rclavicle 5.63555e-014 1.27222e-014
rhumerus -34.6361 -5.92732 -80.8709
rradius 25.8745
rwrist -0.0209583
rhand -11.4049 15.0684
rfingers 7.12502
rthumb 14.6304 -14.3955
lclavicle 5.63555e-014 1.27222e-014
lhumerus -37.1798 -1.14972 79.5105
lradius 25.5851
lwrist 6.91232
lhand -3.99656 28.3596
lfingers 7.12502
lthumb 21.7573 57.1567
rfemur -33.9915 0.621977 18.8342
rtibia 40.3469
rfoot -14.1534 -12.2476
rtoes -16.2303
lfemur -5.86164 -3.93525 -27.5251
ltibia 20.037
lfoot -21.0511 14.5556
ltoes -14.7677
130
root 16.3122 17.8279 -12.7291 5.06935 -52.9916 1.08829
lowerback 4.15197 1.90299 -5.70573
upperback 1.30503 2.26839 -0.893407
thorax -1.1675 1.12839 2.15699
lowerneck -5.65063 -3.56639 -5.49649
upperneck 17.8664 -4.93663 3.30878
head 6.5784 -2.54617 1.59652
rclavicle -6.87795e-014 1.35174e-014
rhumerus -34.5825 -6.26436 -80.603
rradius 25.6341
rwrist 0.356726
rhand -11.2489 15.4091
rfingers 7.12502
rthumb 14.7807 -14.0438
lclavicle -6.87795e-014 1.35174e-014
lhumerus -37.0807 -1.1455 79.5548
lradius 25.512
lwrist 6.7261
lhand -3.87713 28.3628
lfingers 7.12502
lthumb 21.8719 57.1466
rfemur -33.9311 0.867969 18.6998
rtibia 39.1438
rfoot -14.2339 -12.2266
rtoes -15.8455
lfemur -5.51927 -4.01239 -27.5589
ltibia 19.6872
lfoot -21.0237 14.6246
ltoes -15.2122
131
root 16.2703 17.8266 -12.6984 5.04958 -52.9843 1.162
lowerback 4.073 1.89916 -5.75365
upperback 1.33731 2.26957 -0.826574
thorax -1.09456 1.12675 2.25569
lowerneck -5.72504 -3.54066 -5.59546
upperneck 17.9468 -4.88863 3.31319
head 6.61771 -2.52866 1.61642
rclavicle 5.08889e-014 -2.50469e-014
rhumerus -34.6294 -6.38011 -80.3872
rradius 25.5555
rwrist 0.53892
rhand -11.0027 15.6109
rfingers 7.12502
rthumb 15.0179 -13.8245
lclavicle 5.08889e-014 -2.50469e-014
lhumerus -37.0353 -1.18894 79.6371
lradius 25.5096
lwrist 6.55577
lhand -3.80906 28.3318
lfingers 7.12502
lthumb 21.9373 57.1079
rfemur -33.8877 1.10438 18.5438
rtibia 37.9447
rfoot -14.3636 -12.0419
rtoes -14.9454
lfemur -5.19065 -3.97835 -27.6158
ltibia 19.3409
lfoot -21.0353 14.6186
ltoes -15.2393
